# xmcd CD database file
#
# Track frame offsets:
#	150
#	17225
#	30458
#	47058
#	65361
#	88553
#	99683
#	117330
#	133350
#	145533
#	164752
#	178435
#	190916
#	202682
#	215597
#	229093
#	249233
#	264888
#	282876
#	302316
#
# Disc length: 4206 seconds
#
# Revision: 0
# Processed by: cddbd v1.5.2PL0 Copyright (c) Steve Scherf et al.
# Submitted via: CDex 1.70beta2
#
DISCID=1a106c14
DTITLE=In The Mood For The Blues - CD2
DYEAR=2004
DGENRE=Blues
TTITLE0=Dire Straits - Fade To Black
TTITLE1=Fleetwood Mac - Shake Your Moneymaker
TTITLE2=Stevie Ray Vaughan - Pride And Joy
TTITLE3=ZZ Top - My Head's In Mississippi
TTITLE4=Lynyrd Skynyrd - Call Me The Breeze
TTITLE5=Robert Palmer - Mama Talk To Your Daughter
TTITLE6=John Mayall and The Bluesbreakers - Greeny
TTITLE7=B.B. King - Ain't Nobody Home
TTITLE8=John Lee Hooker - Boom Boom
TTITLE9=The Taste - Leavin' Blues
TTITLE10=Juicy Lucky - Who Do You Love
TTITLE11=Bo Diddley - Road Runner
TTITLE12=Etta James - I'd Rather Go Blind
TTITLE13=Muddy Waters - (I'm Your) Hoochie Coochie Man
TTITLE14=Jim Croce - You Don't Mess Around With Jim
TTITLE15=Peter Green - Loser Two Times
TTITLE16=Free - I'll Be Creepin
TTITLE17=Joe Walsh - Turn To Stone
TTITLE18=John Stewart - Gold
TTITLE19=J.J. Cale - Cocaine
EXTD=YEAR: 2004
EXTT0=
EXTT1=
EXTT2=
EXTT3=
EXTT4=
EXTT5=
EXTT6=
EXTT7=
EXTT8=
EXTT9=
EXTT10=
EXTT11=
EXTT12=
EXTT13=
EXTT14=
EXTT15=
EXTT16=
EXTT17=
EXTT18=
EXTT19=
PLAYORDER=
